<svg xmlns:dc="http://purl.org/dc/elements/1.1/" xmlns:cc="http://creativecommons.org/ns#" xmlns:rdf="http://www.w3.org/1999/02/22-rdf-syntax-ns#" xmlns:svg="http://www.w3.org/2000/svg" xmlns="http://www.w3.org/2000/svg" xmlns:sodipodi="http://sodipodi.sourceforge.net/DTD/sodipodi-0.dtd" xmlns:inkscape="http://www.inkscape.org/namespaces/inkscape" version="1.1" x="0px" y="0px" viewBox="0 0 100 100"><g transform="translate(0,-952.36218)"><path style="text-indent:0;text-transform:none;direction:ltr;block-progression:tb;baseline-shift:baseline;color:#ffffff;enable-background:accumulate;" d="M 43.0018,963.36218 C 25.3871,963.36218 11,977.74333 11,995.35117 c 0,17.60773 14.387,31.98903 32.0018,31.98903 7.0044,0 13.5002,-2.2762 18.7822,-6.1229 l 18.6886,18.681 c 1.9524,1.9518 5.1103,1.9519 7.0628,0 1.9528,-1.9518 1.9528,-5.1394 0,-7.0912 l -18.6572,-18.6499 c 3.8572,-5.2836 6.1253,-11.7953 6.1253,-18.80603 0,-17.60784 -14.3871,-31.98899 -32.0017,-31.98899 z m 0,9.99656 c 12.2099,0 22.0012,9.78723 22.0012,21.99243 0,12.20513 -9.7914,21.99243 -22.0012,21.99243 -12.2099,0 -22.0013,-9.7873 -22.0013,-21.99243 0,-12.2052 9.7913,-21.99243 22.0013,-21.99243 z" fill="#ffffff" fill-opacity="1" stroke="none" marker="none" visibility="visible" display="inline" overflow="visible"></path></g></svg>